<svg width="168" height="168" viewBox="0 0 168 168" fill="none" xmlns="http://www.w3.org/2000/svg">
<rect x="6" y="6" width="156" height="156" rx="12" stroke="black" stroke-width="2"/>
<circle cx="24" cy="6" r="6" fill="black"/>
<circle cx="84" cy="6" r="6" fill="black"/>
<circle cx="54" cy="6" r="6" fill="black"/>
<circle cx="84" cy="162" r="6" fill="black"/>
<circle cx="54" cy="162" r="6" fill="black"/>
<circle cx="24" cy="162" r="6" fill="black"/>
<circle cx="6" cy="44" r="6" fill="black"/>
<circle cx="162" cy="44" r="6" fill="black"/>
<path d="M98.776 117.912H106.864C108.56 117.912 109.944 118.296 111.016 119.064C112.088 119.816 112.624 121.016 112.624 122.664C112.624 123.688 112.376 124.568 111.88 125.304C111.384 126.024 110.688 126.544 109.792 126.864C110.208 126.96 110.568 127.104 110.872 127.296C111.176 127.488 111.408 127.696 111.568 127.92C111.744 128.144 111.888 128.432 112 128.784C112.112 129.136 112.184 129.448 112.216 129.72C112.264 129.976 112.304 130.32 112.336 130.752C112.352 130.864 112.368 131.08 112.384 131.4C112.416 131.72 112.432 131.936 112.432 132.048C112.448 132.144 112.464 132.32 112.48 132.576C112.512 132.832 112.536 133.016 112.552 133.128C112.568 133.224 112.592 133.376 112.624 133.584C112.672 133.776 112.712 133.928 112.744 134.04C112.776 134.136 112.816 134.256 112.864 134.4C112.912 134.528 112.968 134.64 113.032 134.736C113.096 134.832 113.168 134.92 113.248 135H110.032C109.984 134.936 109.936 134.864 109.888 134.784C109.856 134.688 109.824 134.592 109.792 134.496C109.76 134.384 109.736 134.288 109.72 134.208C109.704 134.112 109.68 133.992 109.648 133.848C109.632 133.688 109.616 133.56 109.6 133.464C109.6 133.368 109.592 133.224 109.576 133.032C109.56 132.84 109.544 132.696 109.528 132.6C109.528 132.504 109.52 132.336 109.504 132.096C109.488 131.856 109.48 131.688 109.48 131.592C109.4 130.2 109.104 129.248 108.592 128.736C108.096 128.208 107.144 127.944 105.736 127.944H101.752V135H98.776V117.912ZM101.752 120.36V125.712H105.712C106.288 125.712 106.776 125.68 107.176 125.616C107.576 125.552 107.976 125.44 108.376 125.28C108.792 125.104 109.104 124.824 109.312 124.44C109.536 124.056 109.648 123.568 109.648 122.976C109.648 122.432 109.552 121.984 109.36 121.632C109.168 121.264 108.888 120.992 108.52 120.816C108.168 120.64 107.8 120.52 107.416 120.456C107.048 120.392 106.608 120.36 106.096 120.36H101.752ZM127.986 117.912V120.432H118.65V124.968H127.314V127.392H118.65V132.432H128.13V135H115.674V117.912H127.986ZM137.2 127.128V129.672H130.168V127.128H137.2ZM152.432 117.912V120.432H143.096V124.968H151.76V127.392H143.096V132.432H152.576V135H140.12V117.912H152.432Z" fill="black"/>
</svg>
