<svg width="19" height="47" viewBox="0 0 19 47" fill="none" xmlns="http://www.w3.org/2000/svg">
<rect x="5.05469" y="1" width="5.78978" height="5.78978" rx="1" stroke="white" stroke-width="0.7"/>
<path d="M6.50391 1V6.78978" stroke="white" stroke-width="0.7"/>
<path d="M9.45703 1V6.78978" stroke="white" stroke-width="0.7"/>
<path d="M7.98438 1V6.78978" stroke="white" stroke-width="0.7"/>
<rect x="1" y="46.1606" width="38.0628" height="13.9254" rx="6.96271" transform="rotate(-90 1 46.1606)" stroke="white"/>
<path d="M12.9253 28.4267V28.9268H10.5586C10.5619 28.7717 10.5834 28.6297 10.623 28.501C10.6626 28.3723 10.7071 28.2633 10.7566 28.1742C10.8095 28.0818 10.8854 27.9894 10.9844 27.8969C11.0867 27.8012 11.1775 27.7237 11.2567 27.6642C11.3392 27.6015 11.4515 27.5223 11.5934 27.4266C11.6033 27.42 11.6512 27.3886 11.737 27.3325C11.8261 27.2731 11.8806 27.2368 11.9004 27.2236C11.9202 27.2071 11.9648 27.1724 12.0341 27.1196C12.1034 27.0635 12.1479 27.0189 12.1678 26.9859C12.1909 26.9529 12.2206 26.9083 12.2569 26.8522C12.2965 26.7961 12.3229 26.74 12.3361 26.6839C12.3493 26.6245 12.3559 26.5618 12.3559 26.4957C12.3559 26.3142 12.3047 26.1723 12.2024 26.0699C12.1034 25.9643 11.9681 25.9115 11.7964 25.9115C11.6974 25.9115 11.6116 25.928 11.5389 25.961C11.4663 25.9907 11.4086 26.0303 11.3656 26.0798C11.326 26.1293 11.293 26.1937 11.2666 26.2729C11.2402 26.3489 11.2221 26.4215 11.2122 26.4908C11.2056 26.5601 11.2006 26.641 11.1973 26.7334H10.6477V26.6443C10.6477 26.2713 10.7517 25.9759 10.9596 25.758C11.1709 25.5368 11.4548 25.4263 11.8113 25.4263C12.1479 25.4263 12.4186 25.522 12.6233 25.7134C12.8279 25.9016 12.9302 26.1525 12.9302 26.466C12.9302 26.5915 12.9104 26.7103 12.8708 26.8225C12.8312 26.9348 12.7883 27.0255 12.7421 27.0948C12.6992 27.1642 12.6233 27.245 12.5143 27.3375C12.4054 27.4299 12.3245 27.4942 12.2717 27.5306C12.2189 27.5669 12.1215 27.6329 11.9796 27.7286C11.567 27.996 11.3194 28.2287 11.2369 28.4267H12.9253Z" fill="white"/>
<path d="M8.57433 25.3174C9.07276 25.3174 9.47711 25.489 9.78739 25.8323C10.101 26.1723 10.2578 26.6163 10.2578 27.1642C10.2578 27.7121 10.101 28.1578 9.78739 28.501C9.47381 28.841 9.06615 29.011 8.56443 29.011C8.0594 29.011 7.65009 28.841 7.33651 28.501C7.02623 28.1611 6.87109 27.7154 6.87109 27.1642C6.87109 26.6295 7.02293 26.1888 7.32661 25.8422C7.63359 25.4923 8.04949 25.3174 8.57433 25.3174ZM8.56443 25.8373C8.24094 25.8373 7.98183 25.9577 7.78708 26.1987C7.59233 26.4364 7.49495 26.7549 7.49495 27.1543C7.49495 27.5636 7.59068 27.8887 7.78213 28.1297C7.97688 28.3707 8.24094 28.4911 8.57433 28.4911C8.89451 28.4911 9.15033 28.3707 9.34177 28.1297C9.53652 27.8854 9.6339 27.562 9.6339 27.1593C9.6339 26.7565 9.53652 26.4364 9.34177 26.1987C9.15033 25.9577 8.89121 25.8373 8.56443 25.8373Z" fill="white"/>
<path d="M6.50007 27.585C6.46706 28.0174 6.31192 28.364 6.03465 28.6248C5.76068 28.8822 5.40419 29.011 4.96518 29.011C4.46675 29.011 4.06735 28.8426 3.76697 28.5059C3.46659 28.1692 3.31641 27.722 3.31641 27.1641C3.31641 26.8274 3.38077 26.5221 3.50951 26.2482C3.63824 25.9709 3.83134 25.7481 4.0888 25.5797C4.34627 25.4081 4.6483 25.3223 4.99488 25.3223C5.36788 25.3223 5.69301 25.4262 5.97028 25.6342C6.24755 25.8388 6.41425 26.1359 6.47036 26.5254H5.8564C5.81349 26.3142 5.71447 26.1491 5.55933 26.0303C5.40419 25.9082 5.21274 25.8471 4.98498 25.8471C4.75062 25.8471 4.55092 25.9131 4.38588 26.0451C4.22414 26.1772 4.10861 26.3406 4.03929 26.5353C3.97327 26.7268 3.94027 26.9364 3.94027 27.1641C3.94027 27.3358 3.96007 27.4975 3.99968 27.6494C4.03929 27.8012 4.09871 27.9415 4.17793 28.0702C4.25715 28.1956 4.36442 28.2963 4.49976 28.3722C4.63839 28.4482 4.79848 28.4861 4.98003 28.4861C5.50486 28.4861 5.80524 28.1857 5.88116 27.585H6.50007Z" fill="white"/>
<ellipse cx="14.1299" cy="12.395" rx="3.86817" ry="3.86818" fill="white" stroke="black" stroke-width="0.5"/>
<path d="M14.0234 10.2637V13.1586L15.1814 12.0006" stroke="black" stroke-width="0.5" stroke-linecap="round"/>
</svg>
