<svg width="36" height="40" viewBox="0 0 36 40" fill="none" xmlns="http://www.w3.org/2000/svg">
<path d="M29.3432 31.416L31.0074 34.8127C31.7558 36.3402 32.13 37.104 32.0348 37.7241C31.9516 38.2656 31.65 38.7493 31.2002 39.0623C30.6853 39.4206 29.8348 39.4206 28.1337 39.4206H8.33702C6.73041 39.4206 5.92711 39.4206 5.42212 39.0825C4.98062 38.7868 4.6749 38.3277 4.57241 37.8064C4.45519 37.21 4.76497 36.4689 5.38454 34.9865L6.8769 31.416" stroke="white"/>
<circle cx="18.1668" cy="18.1668" r="17.1668" stroke="white"/>
<path d="M26.6589 18.1659C26.6589 22.8492 22.8624 26.6457 18.1791 26.6457C13.4958 26.6457 9.69922 22.8492 9.69922 18.1659C9.69922 13.4826 13.4958 9.68604 18.1791 9.68604C22.8624 9.68604 26.6589 13.4826 26.6589 18.1659Z" stroke="white"/>
<circle cx="18.1687" cy="18.1687" r="7.55545" stroke="black"/>
</svg>
