<svg width="44" height="44" viewBox="0 0 44 44" fill="none" xmlns="http://www.w3.org/2000/svg">
<path d="M36.5 21.9643C36.5 29.9725 30.0081 36.4643 22 36.4643C13.9919 36.4643 7.5 29.9725 7.5 21.9643C7.5 13.9562 13.9919 7.46436 22 7.46436C30.0081 7.46436 36.5 13.9562 36.5 21.9643Z" stroke="white"/>
<line x1="0.5" y1="21.4644" x2="4.43129" y2="21.4644" stroke="white" stroke-linecap="round"/>
<line x1="39.5" y1="21.4644" x2="43.4313" y2="21.4644" stroke="white" stroke-linecap="round"/>
<line x1="22.4727" y1="0.5" x2="22.4727" y2="4.43129" stroke="white" stroke-linecap="round"/>
<line x1="22.4727" y1="39.5" x2="22.4727" y2="43.4313" stroke="white" stroke-linecap="round"/>
<line x1="37.5117" y1="7.14119" x2="34.7319" y2="9.92103" stroke="white" stroke-linecap="round"/>
<line x1="9.93359" y1="34.7183" x2="7.15375" y2="37.4982" stroke="white" stroke-linecap="round"/>
<line x1="7.15633" y1="6.43359" x2="9.93617" y2="9.21343" stroke="white" stroke-linecap="round"/>
<line x1="34.7345" y1="34.0107" x2="37.5143" y2="36.7906" stroke="white" stroke-linecap="round"/>
</svg>
