<svg width="30" height="30" viewBox="0 0 30 30" fill="none" xmlns="http://www.w3.org/2000/svg">
<path class="rotor" d="M30 16.6494V13.3423H27.9326C27.7844 12.1801 27.4793 11.0434 27.0255 9.96317L28.8167 8.92922L27.1632 6.06816L25.3626 7.11045C24.6523 6.18138 23.8209 5.35133 22.8907 4.64232L23.9333 2.84022L21.0683 1.18716L20.0257 2.98614C18.9463 2.53461 17.8107 2.23133 16.6499 2.08456V0H13.3449V2.07622C12.1823 2.2205 11.0445 2.52169 9.96281 2.97155L8.92963 1.18299L6.0636 2.83709L7.0947 4.62148C6.15942 5.33084 5.32348 6.16234 4.60921 7.09377L2.83684 6.06816L1.18228 8.93235L2.94631 9.95066C2.48943 11.0356 2.18219 12.1777 2.03301 13.3454H0V16.6525H2.02468C2.16799 17.8241 2.47106 18.9704 2.92546 20.0598L1.18228 21.0656L2.83684 23.9298L4.57793 22.925C5.29276 23.8673 6.13162 24.7087 7.07176 25.4265L6.06777 27.164L8.93275 28.8181L9.93467 27.0837C11.0256 27.5406 12.1741 27.8457 13.348 27.9905V30H16.6551V27.9863C17.8274 27.8383 18.974 27.5311 20.0632 27.0733L21.0704 28.8181L23.9354 27.164L22.9209 25.4077C23.8565 24.6917 24.6914 23.8531 25.4033 22.9146L27.1673 23.9329L28.8209 21.0687L27.0485 20.0472C27.4994 18.9625 27.8007 17.8216 27.9441 16.6557L30 16.6494ZM15.6824 11.8685V5.00191C17.1912 5.10817 18.6566 5.55321 19.9696 6.3039C21.2826 7.05459 22.4093 8.09161 23.266 9.3378L17.3067 12.7773C16.8661 12.3217 16.3012 12.0056 15.6824 11.8685ZM16.8188 15.0297C16.8188 15.3931 16.711 15.7484 16.509 16.0506C16.307 16.3528 16.02 16.5883 15.6841 16.7274C15.3482 16.8664 14.9787 16.9028 14.6221 16.8319C14.2656 16.761 13.9381 16.586 13.681 16.329C13.424 16.0721 13.2489 15.7446 13.178 15.3882C13.1071 15.0317 13.1435 14.6623 13.2826 14.3265C13.4217 13.9907 13.6573 13.7038 13.9595 13.5018C14.2618 13.2999 14.6172 13.1922 14.9807 13.1922C15.2222 13.1923 15.4613 13.24 15.6844 13.3325C15.9075 13.425 16.1102 13.5606 16.2808 13.7314C16.4515 13.9022 16.5869 14.105 16.6792 14.3281C16.7715 14.5512 16.8189 14.7903 16.8188 15.0318V15.0297ZM14.1456 5.01233V11.9049C13.5564 12.0626 13.0237 12.3834 12.6089 12.8305L6.65682 9.39096C7.49936 8.14891 8.60919 7.11104 9.90498 6.3534C11.2008 5.59576 12.6497 5.13755 14.1456 5.01233ZM4.92407 15.0318C4.92242 13.543 5.2537 12.0726 5.89366 10.7282L11.8593 14.1677C11.7805 14.4476 11.7402 14.7369 11.7394 15.0276C11.7405 15.3281 11.7833 15.6269 11.8666 15.9156L5.90513 19.3552C5.25832 18.0057 4.92304 16.5282 4.92407 15.0318ZM12.6287 17.2539C13.0405 17.6905 13.5657 18.0037 14.1456 18.1586V25.0481C12.6544 24.9232 11.2099 24.4673 9.91724 23.7136C8.6246 22.96 7.51644 21.9275 6.6735 20.6914L12.6287 17.2539ZM15.6824 25.0585V18.193C16.2918 18.0581 16.849 17.7497 17.2869 17.305L23.2493 20.7445C22.392 21.9844 21.2668 23.0156 19.957 23.762C18.6472 24.5083 17.1863 24.9507 15.6824 25.0565V25.0585ZM24.0229 19.4208L18.074 15.9865C18.2631 15.374 18.2656 14.7191 18.0813 14.1052L24.0365 10.6657C24.6958 12.0313 25.037 13.5285 25.0347 15.0448C25.0323 16.5611 24.6864 18.0573 24.0229 19.4208Z" fill="white"/>
</svg>
