<svg width="38" height="41" viewBox="0 0 38 41" fill="none" xmlns="http://www.w3.org/2000/svg">
<path d="M20.0541 21.4936C20.314 21.0983 20.4839 20.6516 20.5521 20.1846C20.6203 19.7177 20.585 19.2415 20.4488 18.7894C19.6946 15.8407 21.0691 13.43 24.1072 12.2282C25.5941 11.6304 27.187 11.3348 28.7913 11.3588C30.3957 11.3828 31.9788 11.7259 33.4469 12.3679C34.4831 12.7941 35.484 13.2972 36.4991 13.7654C36.6551 13.8146 36.789 13.9162 36.8778 14.0526C36.9665 14.189 37.0046 14.3518 36.9854 14.5131C36.9757 14.6678 36.9143 14.815 36.811 14.9314C36.7076 15.0478 36.5681 15.1268 36.4145 15.1559C35.498 15.434 34.6533 15.906 33.9389 16.5394C33.2245 17.1728 32.6574 17.9524 32.2768 18.8244C31.6395 20.286 30.6258 21.5559 29.3374 22.5068C28.3515 23.2516 27.1358 23.6349 25.897 23.5916C24.6583 23.5482 23.4728 23.081 22.5423 22.2692C23.3468 20.468 24.7432 18.9901 26.5038 18.0767C26.8562 17.895 27.2087 17.7483 27.5963 17.5876C28.0757 17.378 28.3012 17.0216 28.118 16.6233C28.0836 16.525 28.0276 16.4356 27.954 16.3615C27.8804 16.2874 27.791 16.2306 27.6924 16.1951C27.5938 16.1596 27.4884 16.1464 27.384 16.1564C27.2796 16.1664 27.1787 16.1994 27.0888 16.253C25.7702 16.7395 24.5646 17.4856 23.5445 18.4463C22.5245 19.407 21.7112 20.5624 21.1537 21.843C20.5099 23.2696 20.3325 24.8602 20.6462 26.3918C20.7096 26.8181 20.7942 26.9578 21.2735 27.0207C22.6716 27.1458 24.028 27.5584 25.2562 28.2321C26.4844 28.9058 27.5575 29.8259 28.407 30.9337C29.057 31.8145 29.5242 32.8144 29.7815 33.8755C30.3101 33.8755 30.8177 33.8755 31.3181 33.8755C34.6945 34.0781 36.9572 35.9717 37.8595 39.3956C38.1978 40.6604 37.9793 40.9958 36.6048 40.9958C24.8191 40.9958 13.0334 40.9958 1.24769 40.9958C1.09262 40.9958 0.93754 40.9958 0.782465 40.9958C0.655902 41.0096 0.527907 40.9893 0.412077 40.9369C0.296247 40.8844 0.196908 40.8019 0.124615 40.698C0.052322 40.594 0.00977447 40.4727 0.00149265 40.3467C-0.00678917 40.2207 0.0195041 40.0949 0.0775791 39.9826C1.09262 37.2574 3.50333 34.4624 7.54232 34.4624C7.67519 34.474 7.80863 34.448 7.92717 34.3874C8.0457 34.3268 8.14446 34.2341 8.21197 34.12C8.58961 33.5601 9.08503 33.0878 9.6642 32.7356C10.2434 32.3834 10.8926 32.1597 11.5672 32.0797C11.7932 32.0375 11.9975 31.919 12.1452 31.7443C13.462 29.884 15.2825 28.4306 17.3966 27.5518C17.885 27.378 18.3842 27.2356 18.891 27.1255C19.1307 27.0626 19.2716 26.9928 19.2505 26.6993C18.7853 21.5914 17.8407 16.5884 15.7261 11.8788C15.4582 11.2848 15.1128 10.7188 14.7886 10.1529C14.4643 9.58687 14.126 9.517 13.7312 9.74758C13.639 9.80309 13.5599 9.87774 13.4996 9.96642C13.4392 10.0551 13.3989 10.1557 13.3815 10.2613C13.3641 10.3668 13.3699 10.4749 13.3987 10.578C13.4274 10.6811 13.4783 10.7769 13.548 10.8586C14.5033 12.3988 15.2835 14.0392 15.8741 15.7499C16.1208 16.4486 16.0503 16.5325 15.3031 16.5325C14.1858 16.5742 13.082 16.2785 12.1379 15.6845C11.1939 15.0906 10.4541 14.2264 10.0165 13.2064C9.10179 11.2426 8.76463 9.06287 9.04373 6.91764C9.19369 5.45463 9.61929 4.03252 10.2984 2.72513C10.6861 1.97048 11.0033 1.16692 11.4121 0.419251C11.4877 0.299022 11.5911 0.198316 11.7136 0.125426C11.8362 0.0525354 11.9744 0.0095468 12.117 0C12.2532 0.020806 12.3825 0.0734942 12.494 0.153697C12.6056 0.233899 12.6962 0.339305 12.7585 0.461176C13.4634 2.68321 15.0282 4.01083 17.0794 4.9262C18.3704 5.51813 19.4636 6.46368 20.2303 7.65133C20.6525 8.22434 20.9555 8.87484 21.1218 9.565C21.288 10.2552 21.3142 10.9712 21.1988 11.6715C21.0833 12.3718 20.8286 13.0423 20.4493 13.6441C20.0701 14.2459 19.5739 14.7669 18.9897 15.1769C18.8642 15.2525 18.7703 15.3703 18.725 15.5088C18.6798 15.6473 18.6861 15.7973 18.743 15.9315C19.1729 17.6784 19.5606 19.4253 19.9624 21.1792C19.9836 21.27 20.0118 21.3538 20.0541 21.4936ZM25.2209 31.2761C25.2212 31.0978 25.1528 30.9262 25.0296 30.7963C24.9064 30.6664 24.7378 30.5881 24.5583 30.5774C24.3713 30.5774 24.192 30.651 24.0598 30.782C23.9277 30.9131 23.8534 31.0908 23.8534 31.2761C23.8534 31.4614 23.9277 31.6392 24.0598 31.7702C24.192 31.9013 24.3713 31.9749 24.5583 31.9749C24.7354 31.9643 24.902 31.888 25.0248 31.7611C25.1476 31.6341 25.2176 31.466 25.2209 31.2901V31.2761ZM16.2054 36.1674C16.0184 36.1674 15.8391 36.241 15.7069 36.372C15.5748 36.5031 15.5005 36.6808 15.5005 36.8661C15.4721 36.9698 15.4681 37.0785 15.489 37.1839C15.5099 37.2893 15.5549 37.3885 15.6207 37.4738C15.6865 37.5591 15.7713 37.6282 15.8684 37.6758C15.9655 37.7234 16.0724 37.7481 16.1807 37.7481C16.289 37.7481 16.3959 37.7234 16.493 37.6758C16.5901 37.6282 16.6749 37.5591 16.7407 37.4738C16.8065 37.3885 16.8516 37.2893 16.8724 37.1839C16.8933 37.0785 16.8893 36.9698 16.8609 36.8661C16.8578 36.6914 16.7888 36.5242 16.6674 36.3974C16.5461 36.2706 16.3812 36.1936 16.2054 36.1814V36.1674ZM9.29749 37.523C9.29749 37.3376 9.22323 37.1599 9.09103 37.0289C8.95884 36.8978 8.77955 36.8242 8.5926 36.8242C8.44019 36.8621 8.30491 36.9493 8.20824 37.0721C8.11158 37.1949 8.05908 37.3462 8.05908 37.502C8.05908 37.6578 8.11158 37.8091 8.20824 37.9319C8.30491 38.0547 8.44019 38.1419 8.5926 38.1798C8.77018 38.1803 8.94143 38.1145 9.07211 37.9953C9.2028 37.8761 9.28329 37.7124 9.29749 37.5369V37.523ZM18.2566 31.2901C18.2566 31.1048 18.1823 30.927 18.0501 30.796C17.9179 30.665 17.7387 30.5913 17.5517 30.5913C17.3734 30.6037 17.2066 30.6828 17.0849 30.8125C16.9632 30.9422 16.8957 31.1129 16.8962 31.2901C16.8634 31.3947 16.8559 31.5054 16.8742 31.6134C16.8926 31.7214 16.9363 31.8236 17.0018 31.9117C17.0673 31.9999 17.1528 32.0716 17.2514 32.121C17.35 32.1704 17.4589 32.1961 17.5693 32.1961C17.6798 32.1961 17.7887 32.1704 17.8873 32.121C17.9859 32.0716 18.0714 31.9999 18.1369 31.9117C18.2024 31.8236 18.2461 31.7214 18.2644 31.6134C18.2828 31.5054 18.2753 31.3947 18.2425 31.2901H18.2566ZM21.0761 34.0851C21.0334 33.94 20.9444 33.8125 20.8224 33.7217C20.7004 33.631 20.552 33.582 20.3994 33.582C20.2469 33.582 20.0985 33.631 19.9765 33.7217C19.8545 33.8125 19.7655 33.94 19.7228 34.0851C19.6921 34.1892 19.6864 34.299 19.7059 34.4057C19.7255 34.5125 19.7699 34.6132 19.8355 34.7C19.9012 34.7868 19.9863 34.8572 20.0842 34.9057C20.1821 34.9542 20.29 34.9795 20.3994 34.9795C20.5089 34.9795 20.6168 34.9542 20.7147 34.9057C20.8126 34.8572 20.8977 34.7868 20.9634 34.7C21.029 34.6132 21.0734 34.5125 21.093 34.4057C21.1125 34.299 21.1068 34.1892 21.0761 34.0851ZM32.4248 37.5789C32.4491 37.4744 32.4488 37.3657 32.424 37.2613C32.3991 37.157 32.3504 37.0596 32.2815 36.9769C32.2126 36.8942 32.1255 36.8284 32.0268 36.7844C31.9281 36.7405 31.8205 36.7196 31.7124 36.7235C31.6043 36.7274 31.4985 36.7559 31.4033 36.8068C31.3081 36.8578 31.226 36.9297 31.1633 37.0171C31.1007 37.1046 31.0591 37.2051 31.042 37.311C31.0248 37.4169 31.0325 37.5253 31.0644 37.6278C31.0819 37.8007 31.1638 37.961 31.2942 38.0773C31.4245 38.1936 31.5939 38.2575 31.7693 38.2566C31.8588 38.2532 31.9468 38.2318 32.0277 38.1936C32.1087 38.1555 32.181 38.1015 32.2404 38.0349C32.2997 37.9683 32.3447 37.8904 32.3728 37.806C32.4009 37.7216 32.4114 37.6325 32.4037 37.5439L32.4248 37.5789ZM27.2791 37.5789C27.3176 37.4753 27.3307 37.3642 27.3174 37.2546C27.3042 37.145 27.265 37.0401 27.2029 36.9485C27.1409 36.8569 27.0579 36.7811 26.9607 36.7274C26.8634 36.6736 26.7547 36.6435 26.6435 36.6395C26.5323 36.6354 26.4216 36.6575 26.3207 36.704C26.2197 36.7505 26.1313 36.82 26.0626 36.9069C25.994 36.9937 25.9471 37.0955 25.9257 37.2038C25.9044 37.3121 25.9092 37.4239 25.9399 37.5299C25.9341 37.6185 25.9466 37.7073 25.9764 37.7909C26.0062 37.8746 26.0529 37.9514 26.1135 38.0167C26.1741 38.082 26.2474 38.1345 26.329 38.1709C26.4106 38.2073 26.4989 38.227 26.5884 38.2287C26.6776 38.2345 26.7671 38.2219 26.8512 38.1918C26.9353 38.1616 27.0122 38.1146 27.0771 38.0535C27.142 37.9925 27.1934 37.9188 27.2282 37.8371C27.263 37.7554 27.2803 37.6675 27.2791 37.5789Z" fill="white"/>
</svg>
