<svg width="32" height="32" viewBox="0 0 32 32" fill="none" xmlns="http://www.w3.org/2000/svg">
<circle cx="16" cy="16" r="15.5" stroke="white"/>
<path fill-rule="evenodd" clip-rule="evenodd" d="M27.2132 16.1735C27.1925 13.8513 25.2722 11.9009 22.9974 11.9009C19.3512 11.9009 16.488 15.7494 16.1836 16.1735H27.2132Z" stroke="white"/>
<path fill-rule="evenodd" clip-rule="evenodd" d="M5.10323 16.1732C5.12388 18.4954 7.04418 20.4458 9.31897 20.4458C12.9652 20.4458 15.8284 16.5972 16.1328 16.1732L5.10323 16.1732Z" stroke="white"/>
<path fill-rule="evenodd" clip-rule="evenodd" d="M23.9805 8.35493C22.3238 6.72747 19.5868 6.70618 17.9783 8.3147C15.4 10.893 16.0968 15.6389 16.1814 16.154L23.9805 8.35493Z" stroke="white"/>
<path fill-rule="evenodd" clip-rule="evenodd" d="M8.34376 23.9913C10.0004 25.6187 12.7374 25.64 14.346 24.0315C16.9242 21.4532 16.2275 16.7073 16.1428 16.1922L8.34376 23.9913Z" stroke="white"/>
<path fill-rule="evenodd" clip-rule="evenodd" d="M16.162 5.10347C13.8426 5.12414 11.8945 7.04679 11.8945 9.32435C11.8945 12.975 15.7384 15.8417 16.162 16.1465L16.162 5.10347Z" stroke="white"/>
<path fill-rule="evenodd" clip-rule="evenodd" d="M16.1622 27.2159C18.4816 27.1952 20.4297 25.2725 20.4297 22.995C20.4297 19.3443 16.5858 16.4776 16.1622 16.1729L16.1622 27.2159Z" stroke="white"/>
<path fill-rule="evenodd" clip-rule="evenodd" d="M8.34566 8.34135C6.72021 9.99604 6.70226 12.733 8.31274 14.3435C10.8942 16.9249 15.6392 16.2339 16.1543 16.1499L8.34566 8.34135Z" stroke="white"/>
<path fill-rule="evenodd" clip-rule="evenodd" d="M23.9786 23.9775C25.604 22.3228 25.622 19.5858 24.0115 17.9753C21.4301 15.3939 16.685 16.0849 16.17 16.1689L23.9786 23.9775Z" stroke="white"/>
</svg>
