<svg width="45" height="43" viewBox="0 0 45 43" fill="none" xmlns="http://www.w3.org/2000/svg">
<circle cx="21" cy="22" r="20.5" stroke="white"/>
<path d="M21.0003 18.5958C21.0003 21.1256 18.9237 23.2591 16.4603 23.2591C13.9969 23.2591 12 21.1256 12 18.5958C12 14.3535 16.4603 11.0293 16.4603 11.0293C16.4603 11.0293 21.0003 14.3275 21.0003 18.5958Z" fill="#6461FF"/>
<path d="M31.0018 25.8467C31.0018 29.8714 27.4594 33.2655 23.2572 33.2655C19.055 33.2655 15.6484 29.8714 15.6484 25.8467C15.6484 19.0976 23.2572 13.8091 23.2572 13.8091C23.2572 13.8091 31.0018 19.0562 31.0018 25.8467Z" fill="#6461FF"/>
<circle cx="36" cy="9" r="8.5" fill="black" stroke="white"/>
<path d="M42 9.65976V8.3369H41.173C41.1138 7.87203 40.9917 7.41735 40.8102 6.98527L41.5267 6.57169L40.8653 5.42727L40.1451 5.84418C39.8609 5.47255 39.5284 5.14053 39.1563 4.85693L39.5733 4.13609L38.4273 3.47486L38.0103 4.19446C37.5785 4.01384 37.1243 3.89253 36.6599 3.83383V3H35.338V3.83049C34.8729 3.8882 34.4178 4.00868 33.9851 4.18862L33.5719 3.4732L32.4254 4.13484L32.8379 4.84859C32.4638 5.13234 32.1294 5.46494 31.8437 5.83751L31.1347 5.42727L30.4729 6.57294L31.1785 6.98027C30.9958 7.41426 30.8729 7.87106 30.8132 8.33815H30V9.66102H30.8099C30.8672 10.1296 30.9884 10.5882 31.1702 11.0239L30.4729 11.4262L31.1347 12.5719L31.8312 12.17C32.1171 12.5469 32.4526 12.8835 32.8287 13.1706L32.4271 13.8656L33.5731 14.5272L33.9739 13.8335C34.4102 14.0163 34.8696 14.1383 35.3392 14.1962V15H36.662V14.1945C37.131 14.1353 37.5896 14.0125 38.0253 13.8293L38.4281 14.5272L39.5741 13.8656L39.1684 13.1631C39.5426 12.8767 39.8766 12.5413 40.1613 12.1658L40.8669 12.5732L41.5283 11.4275L40.8194 11.0189C40.9998 10.585 41.1203 10.1286 41.1776 9.66226L42 9.65976ZM36.2729 7.74739V5.00076C36.8765 5.04327 37.4626 5.22128 37.9878 5.52156C38.513 5.82184 38.9637 6.23664 39.3064 6.73512L36.9227 8.11093C36.7464 7.92867 36.5205 7.80225 36.2729 7.74739ZM36.7275 9.01188C36.7275 9.15725 36.6844 9.29936 36.6036 9.42023C36.5228 9.54111 36.408 9.63531 36.2736 9.69095C36.1393 9.74658 35.9915 9.76114 35.8488 9.73278C35.7062 9.70441 35.5752 9.63441 35.4724 9.53162C35.3696 9.42882 35.2996 9.29786 35.2712 9.15528C35.2428 9.0127 35.2574 8.86491 35.313 8.7306C35.3687 8.59629 35.4629 8.4815 35.5838 8.40074C35.7047 8.31997 35.8469 8.27686 35.9923 8.27686C36.0889 8.27692 36.1845 8.29599 36.2738 8.333C36.363 8.37001 36.4441 8.42423 36.5123 8.49256C36.5806 8.56089 36.6348 8.642 36.6717 8.73124C36.7086 8.82049 36.7276 8.91614 36.7275 9.01272V9.01188ZM35.6582 5.00493V7.76198C35.4226 7.82504 35.2095 7.95338 35.0435 8.1322L32.6627 6.75638C32.9997 6.25956 33.4437 5.84442 33.962 5.54136C34.4803 5.23831 35.0599 5.05502 35.6582 5.00493ZM31.9696 9.01272C31.969 8.41718 32.1015 7.82903 32.3575 7.29128L34.7437 8.66709C34.7122 8.77904 34.6961 8.89475 34.6957 9.01105C34.6962 9.13123 34.7133 9.25078 34.7466 9.36626L32.3621 10.7421C32.1033 10.2023 31.9692 9.61128 31.9696 9.01272ZM35.0515 9.90157C35.2162 10.0762 35.4263 10.2015 35.6582 10.2635V13.0192C35.0618 12.9693 34.4839 12.7869 33.9669 12.4855C33.4498 12.184 33.0066 11.771 32.6694 11.2766L35.0515 9.90157ZM36.2729 13.0234V10.2772C36.5167 10.2232 36.7396 10.0999 36.9148 9.922L39.2997 11.2978C38.9568 11.7937 38.5067 12.2062 37.9828 12.5048C37.4589 12.8033 36.8745 12.9803 36.2729 13.0226V13.0234ZM39.6092 10.7683L37.2296 9.39461C37.3052 9.14961 37.3062 8.88766 37.2325 8.64208L39.6146 7.26627C39.8783 7.81251 40.0148 8.41138 40.0139 9.01792C40.0129 9.62446 39.8746 10.2229 39.6092 10.7683Z" fill="white"/>
</svg>
