<svg width="54" height="18" viewBox="0 0 54 18" fill="none" xmlns="http://www.w3.org/2000/svg">
<path d="M0.896 0.912H8.408C12.232 0.912 14.144 2.488 14.144 5.64C14.144 6.632 13.872 7.512 13.328 8.28C12.8 9.032 12.096 9.536 11.216 9.792C11.792 9.92 12.256 10.104 12.608 10.344C12.96 10.584 13.216 10.92 13.376 11.352C13.536 11.784 13.64 12.168 13.688 12.504C13.736 12.84 13.776 13.336 13.808 13.992C13.808 14.056 13.816 14.216 13.832 14.472C13.848 14.712 13.856 14.88 13.856 14.976C13.856 15.056 13.864 15.208 13.88 15.432C13.912 15.656 13.936 15.824 13.952 15.936C13.968 16.048 13.992 16.2 14.024 16.392C14.056 16.584 14.096 16.744 14.144 16.872C14.192 16.984 14.248 17.12 14.312 17.28C14.376 17.424 14.448 17.56 14.528 17.688C14.608 17.8 14.696 17.904 14.792 18H12.2C12.088 17.84 11.992 17.64 11.912 17.4C11.848 17.16 11.8 16.88 11.768 16.56C11.736 16.224 11.712 15.96 11.696 15.768C11.68 15.56 11.664 15.264 11.648 14.88C11.632 14.496 11.624 14.28 11.624 14.232C11.544 12.776 11.24 11.808 10.712 11.328C10.2 10.848 9.176 10.608 7.64 10.608H3.152V18H0.896V0.912ZM3.152 2.832V8.808H7.4C7.928 8.808 8.368 8.792 8.72 8.76C9.088 8.728 9.488 8.656 9.92 8.544C10.352 8.432 10.696 8.272 10.952 8.064C11.224 7.856 11.448 7.56 11.624 7.176C11.8 6.792 11.888 6.328 11.888 5.784C11.888 4.632 11.536 3.856 10.832 3.456C10.144 3.04 9.2 2.832 8 2.832H3.152ZM29.1577 0.912V2.88H19.5817V8.232H28.5337V10.128H19.5817V16.032H29.2777V18H17.3257V0.912H29.1577ZM38.2616 10.32V12.336H31.2776V10.32H38.2616ZM53.1577 0.912V2.88H43.5817V8.232H52.5337V10.128H43.5817V16.032H53.2777V18H41.3257V0.912H53.1577Z" fill="white"/>
</svg>
