<svg width="46" height="46" viewBox="0 0 46 46" fill="none" xmlns="http://www.w3.org/2000/svg">
<circle cx="23" cy="23" r="22" stroke="white" stroke-width="2"/>
<path fill-rule="evenodd" clip-rule="evenodd" d="M38.4235 23.2382C38.3951 20.0451 35.7547 17.3633 32.6268 17.3633C27.6132 17.3633 23.6764 22.6551 23.2578 23.2382H38.4235Z" fill="white"/>
<path fill-rule="evenodd" clip-rule="evenodd" d="M8.01791 23.2374C8.04631 26.4305 10.6867 29.1123 13.8146 29.1123C18.8282 29.1123 22.765 23.8205 23.1836 23.2374L8.01791 23.2374Z" fill="white"/>
<path fill-rule="evenodd" clip-rule="evenodd" d="M33.9717 12.488C31.6938 10.2503 27.9304 10.221 25.7187 12.4327C22.1735 15.9779 23.1316 22.5035 23.2479 23.2118L33.9717 12.488Z" fill="white"/>
<path fill-rule="evenodd" clip-rule="evenodd" d="M12.4697 33.9876C14.7476 36.2253 18.511 36.2546 20.7228 34.0429C24.2679 30.4977 23.3098 23.9721 23.1935 23.2638L12.4697 33.9876Z" fill="white"/>
<path fill-rule="evenodd" clip-rule="evenodd" d="M23.2193 8.01702C20.0301 8.04545 17.3516 10.6891 17.3516 13.8207C17.3516 18.8404 22.6369 22.7821 23.2193 23.2012L23.2193 8.01702Z" fill="white"/>
<path fill-rule="evenodd" clip-rule="evenodd" d="M23.2182 38.4215C26.4074 38.393 29.0859 35.7494 29.0859 32.6177C29.0859 27.598 23.8006 23.6564 23.2182 23.2373L23.2182 38.4215Z" fill="white"/>
<path fill-rule="evenodd" clip-rule="evenodd" d="M12.4748 12.4691C10.2398 14.7442 10.2151 18.5076 12.4295 20.722C15.979 24.2715 22.5035 23.3213 23.2116 23.2059L12.4748 12.4691Z" fill="white"/>
<path fill-rule="evenodd" clip-rule="evenodd" d="M33.9705 33.9689C36.2055 31.6937 36.2302 27.9304 34.0158 25.716C30.4663 22.1665 23.9419 23.1167 23.2337 23.2321L33.9705 33.9689Z" fill="white"/>
</svg>
